<svg xmlns="http://www.w3.org/2000/svg" viewBox="0 0 32 32">
  <defs>
    <linearGradient id="h" x1="8" y1="6" x2="24" y2="28">
      <stop stop-color="#f5b8c8"/>
      <stop offset="1" stop-color="#e8849a"/>
    </linearGradient>
  </defs>
  <rect width="32" height="32" rx="9" fill="#fdf6ef"/>
  <path fill="url(#h)" d="M16 27.5c-.2 0-.5-.1-.7-.3C9.3 21.8 5.5 17.5 5.5 13.2c0-3.1 2.4-5.6 5.4-5.6 1.5 0 2.9.7 3.8 1.9.9-1.2 2.3-1.9 3.8-1.9 3 0 5.4 2.5 5.4 5.6 0 4.3-3.8 8.6-9.6 14-.2.2-.5.3-.7.3z"/>
  <circle cx="23.5" cy="8" r="2.5" fill="#c9973a"/>
</svg>
